<mxfile host="Electron" modified="2024-10-31T21:38:41.446Z" agent="Mozilla/5.0 (X11; Linux x86_64) AppleWebKit/537.36 (KHTML, like Gecko) draw.io/24.4.8 Chrome/124.0.6367.207 Electron/30.0.6 Safari/537.36" etag="ld3e6xfUkkKObUx3X0ql" version="24.4.8" type="device">
  <diagram name="Page-1" id="EDOHpvj1QvBbbYQuMsdA">
    <mxGraphModel dx="1728" dy="2098" grid="1" gridSize="10" guides="1" tooltips="1" connect="1" arrows="1" fold="1" page="1" pageScale="1" pageWidth="850" pageHeight="1100" math="0" shadow="0">
      <root>
        <mxCell id="0" />
        <mxCell id="1" parent="0" />
        <mxCell id="nOk6LsAhlCukb59VjgZn-1" value="" style="strokeColor=none;shadow=1;strokeWidth=1;rounded=1;absoluteArcSize=1;arcSize=2;movable=1;resizable=1;rotatable=1;deletable=1;editable=1;locked=0;connectable=1;container=0;fillColor=#9933FF;" vertex="1" parent="1">
          <mxGeometry x="157" y="210" width="283" height="360" as="geometry" />
        </mxCell>
        <mxCell id="nOk6LsAhlCukb59VjgZn-54" value="" style="strokeColor=none;shadow=1;strokeWidth=1;rounded=1;absoluteArcSize=1;arcSize=2;movable=1;resizable=1;rotatable=1;deletable=1;editable=1;locked=0;connectable=1;container=0;fillColor=#9933FF;" vertex="1" parent="1">
          <mxGeometry x="477" y="210" width="283" height="360" as="geometry" />
        </mxCell>
        <mxCell id="nOk6LsAhlCukb59VjgZn-76" style="edgeStyle=orthogonalEdgeStyle;rounded=0;orthogonalLoop=1;jettySize=auto;html=1;exitX=0.5;exitY=0;exitDx=0;exitDy=0;entryX=0.5;entryY=0;entryDx=0;entryDy=0;shape=flexArrow;fillColor=#ffcd28;strokeColor=#FFFFFF;gradientColor=#ffa500;dashed=1;" edge="1" parent="1" source="nOk6LsAhlCukb59VjgZn-37" target="nOk6LsAhlCukb59VjgZn-59">
          <mxGeometry relative="1" as="geometry">
            <Array as="points">
              <mxPoint x="299" y="140" />
              <mxPoint x="450" y="140" />
              <mxPoint x="618" y="140" />
              <mxPoint x="618" y="260" />
            </Array>
          </mxGeometry>
        </mxCell>
        <mxCell id="nOk6LsAhlCukb59VjgZn-46" style="edgeStyle=orthogonalEdgeStyle;rounded=0;orthogonalLoop=1;jettySize=auto;html=1;exitX=0.5;exitY=0;exitDx=0;exitDy=0;strokeColor=#FF8000;endArrow=none;endFill=0;strokeWidth=3;" edge="1" parent="1" source="nOk6LsAhlCukb59VjgZn-45" target="nOk6LsAhlCukb59VjgZn-39">
          <mxGeometry relative="1" as="geometry" />
        </mxCell>
        <mxCell id="nOk6LsAhlCukb59VjgZn-68" style="edgeStyle=orthogonalEdgeStyle;rounded=0;orthogonalLoop=1;jettySize=auto;html=1;exitX=0.5;exitY=0;exitDx=0;exitDy=0;strokeColor=#FF8000;endArrow=none;endFill=0;strokeWidth=3;" edge="1" parent="1" source="nOk6LsAhlCukb59VjgZn-69" target="nOk6LsAhlCukb59VjgZn-61">
          <mxGeometry relative="1" as="geometry" />
        </mxCell>
        <mxCell id="nOk6LsAhlCukb59VjgZn-2" value="&lt;font color=&quot;#ffffff&quot;&gt;&lt;span style=&quot;text-wrap: nowrap;&quot;&gt;Node-1&lt;/span&gt;&lt;br style=&quot;forced-color-adjust: none; font-family: Helvetica; font-size: 12px; font-style: normal; font-variant-ligatures: normal; font-variant-caps: normal; letter-spacing: normal; orphans: 2; text-align: left; text-indent: 0px; text-transform: none; widows: 2; word-spacing: 0px; -webkit-text-stroke-width: 0px; white-space: nowrap; text-decoration-thickness: initial; text-decoration-style: initial; text-decoration-color: initial;&quot;&gt;&lt;span style=&quot;font-family: Helvetica; font-size: 12px; font-style: normal; font-variant-ligatures: normal; font-variant-caps: normal; letter-spacing: normal; orphans: 2; text-align: left; text-indent: 0px; text-transform: none; widows: 2; word-spacing: 0px; -webkit-text-stroke-width: 0px; white-space: nowrap; text-decoration-thickness: initial; text-decoration-style: initial; text-decoration-color: initial; float: none; display: inline !important;&quot;&gt;Compute Engine&lt;/span&gt;&lt;/font&gt;" style="text;whiteSpace=wrap;html=1;fontStyle=1" vertex="1" parent="1">
          <mxGeometry x="220" y="510" width="120" height="50" as="geometry" />
        </mxCell>
        <mxCell id="nOk6LsAhlCukb59VjgZn-3" value="" style="sketch=0;points=[[0,0,0],[0.25,0,0],[0.5,0,0],[0.75,0,0],[1,0,0],[0,1,0],[0.25,1,0],[0.5,1,0],[0.75,1,0],[1,1,0],[0,0.25,0],[0,0.5,0],[0,0.75,0],[1,0.25,0],[1,0.5,0],[1,0.75,0]];outlineConnect=0;fontColor=#232F3E;fillColor=#ED7100;strokeColor=none;dashed=0;verticalLabelPosition=bottom;verticalAlign=top;align=center;html=1;fontSize=12;fontStyle=0;aspect=fixed;shape=mxgraph.aws4.resourceIcon;resIcon=mxgraph.aws4.compute;" vertex="1" parent="1">
          <mxGeometry x="170" y="516" width="38" height="38" as="geometry" />
        </mxCell>
        <mxCell id="nOk6LsAhlCukb59VjgZn-49" style="edgeStyle=orthogonalEdgeStyle;rounded=0;orthogonalLoop=1;jettySize=auto;html=1;exitX=0.5;exitY=0;exitDx=0;exitDy=0;endArrow=none;endFill=0;strokeColor=#FF8000;" edge="1" parent="1" source="nOk6LsAhlCukb59VjgZn-23" target="nOk6LsAhlCukb59VjgZn-37">
          <mxGeometry relative="1" as="geometry" />
        </mxCell>
        <mxCell id="nOk6LsAhlCukb59VjgZn-23" value="&lt;font color=&quot;#ffffff&quot;&gt;Linux Bridge&lt;/font&gt;" style="outlineConnect=0;gradientColor=none;html=1;whiteSpace=wrap;fontSize=12;fontStyle=0;strokeColor=#FF8000;fillColor=none;verticalAlign=bottom;align=center;fontColor=#879196;spacingTop=3;" vertex="1" parent="1">
          <mxGeometry x="172" y="315" width="253" height="45" as="geometry" />
        </mxCell>
        <mxCell id="nOk6LsAhlCukb59VjgZn-82" style="edgeStyle=orthogonalEdgeStyle;rounded=0;orthogonalLoop=1;jettySize=auto;html=1;strokeWidth=2;endArrow=none;endFill=0;strokeColor=#000000;" edge="1" parent="1" source="nOk6LsAhlCukb59VjgZn-37" target="nOk6LsAhlCukb59VjgZn-88">
          <mxGeometry relative="1" as="geometry">
            <mxPoint x="236.02857142857147" y="157" as="targetPoint" />
          </mxGeometry>
        </mxCell>
        <mxCell id="nOk6LsAhlCukb59VjgZn-37" value="&lt;font color=&quot;#ffffff&quot;&gt;eth: 192.168.10.5&lt;/font&gt;" style="outlineConnect=0;gradientColor=none;html=1;whiteSpace=wrap;fontSize=12;fontStyle=0;strokeColor=#FF8000;fillColor=none;verticalAlign=middle;align=center;fontColor=#879196;spacingTop=3;" vertex="1" parent="1">
          <mxGeometry x="172" y="260" width="253" height="30" as="geometry" />
        </mxCell>
        <mxCell id="nOk6LsAhlCukb59VjgZn-75" style="edgeStyle=orthogonalEdgeStyle;rounded=0;orthogonalLoop=1;jettySize=auto;html=1;exitX=0.5;exitY=0;exitDx=0;exitDy=0;shape=flexArrow;fillColor=#ffcd28;strokeColor=#FFFFFF;gradientColor=#ffa500;dashed=1;" edge="1" parent="1" source="nOk6LsAhlCukb59VjgZn-41" target="nOk6LsAhlCukb59VjgZn-37">
          <mxGeometry relative="1" as="geometry">
            <Array as="points">
              <mxPoint x="220" y="380" />
              <mxPoint x="220" y="330" />
              <mxPoint x="298" y="330" />
            </Array>
          </mxGeometry>
        </mxCell>
        <mxCell id="nOk6LsAhlCukb59VjgZn-39" value="&lt;font color=&quot;#ffffff&quot;&gt;veth&lt;/font&gt;" style="outlineConnect=0;html=1;whiteSpace=wrap;fontSize=12;fontStyle=0;strokeColor=#3A5431;fillColor=#6d8764;verticalAlign=middle;align=center;spacingTop=3;fontColor=#ffffff;" vertex="1" parent="1">
          <mxGeometry x="350" y="340" width="47" height="20" as="geometry" />
        </mxCell>
        <mxCell id="nOk6LsAhlCukb59VjgZn-40" value="" style="outlineConnect=0;gradientColor=none;html=1;whiteSpace=wrap;fontSize=12;fontStyle=0;strokeColor=#FF8000;fillColor=none;verticalAlign=bottom;align=center;fontColor=#879196;spacingTop=3;" vertex="1" parent="1">
          <mxGeometry x="172.5" y="380" width="98" height="100" as="geometry" />
        </mxCell>
        <mxCell id="nOk6LsAhlCukb59VjgZn-29" value="" style="aspect=fixed;sketch=0;html=1;dashed=0;whitespace=wrap;verticalLabelPosition=bottom;verticalAlign=top;fillColor=#2875E2;strokeColor=#ffffff;points=[[0.005,0.63,0],[0.1,0.2,0],[0.9,0.2,0],[0.5,0,0],[0.995,0.63,0],[0.72,0.99,0],[0.5,1,0],[0.28,0.99,0]];shape=mxgraph.kubernetes.icon2;kubernetesLabel=1;prIcon=pod" vertex="1" parent="1">
          <mxGeometry x="195" y="422" width="50" height="48" as="geometry" />
        </mxCell>
        <mxCell id="nOk6LsAhlCukb59VjgZn-41" value="&lt;font color=&quot;#ffffff&quot;&gt;veth&lt;/font&gt;" style="outlineConnect=0;html=1;whiteSpace=wrap;fontSize=12;fontStyle=0;strokeColor=#3A5431;fillColor=#6d8764;verticalAlign=middle;align=center;fontColor=#ffffff;spacingTop=3;" vertex="1" parent="1">
          <mxGeometry x="196.5" y="380" width="47" height="20" as="geometry" />
        </mxCell>
        <mxCell id="nOk6LsAhlCukb59VjgZn-43" value="" style="outlineConnect=0;gradientColor=none;html=1;whiteSpace=wrap;fontSize=12;fontStyle=0;strokeColor=#FF8000;fillColor=none;verticalAlign=bottom;align=center;fontColor=#879196;spacingTop=3;" vertex="1" parent="1">
          <mxGeometry x="327" y="380" width="98" height="100" as="geometry" />
        </mxCell>
        <mxCell id="nOk6LsAhlCukb59VjgZn-44" value="" style="aspect=fixed;sketch=0;html=1;dashed=0;whitespace=wrap;verticalLabelPosition=bottom;verticalAlign=top;fillColor=#2875E2;strokeColor=#ffffff;points=[[0.005,0.63,0],[0.1,0.2,0],[0.9,0.2,0],[0.5,0,0],[0.995,0.63,0],[0.72,0.99,0],[0.5,1,0],[0.28,0.99,0]];shape=mxgraph.kubernetes.icon2;kubernetesLabel=1;prIcon=pod" vertex="1" parent="1">
          <mxGeometry x="351" y="422" width="50" height="48" as="geometry" />
        </mxCell>
        <mxCell id="nOk6LsAhlCukb59VjgZn-45" value="&lt;font color=&quot;#ffffff&quot;&gt;veth&lt;/font&gt;" style="outlineConnect=0;html=1;whiteSpace=wrap;fontSize=12;fontStyle=0;strokeColor=#3A5431;fillColor=#6d8764;verticalAlign=middle;align=center;fontColor=#ffffff;spacingTop=3;" vertex="1" parent="1">
          <mxGeometry x="350" y="380" width="47" height="20" as="geometry" />
        </mxCell>
        <mxCell id="nOk6LsAhlCukb59VjgZn-47" value="10.200.32.5" style="text;html=1;align=center;verticalAlign=middle;resizable=0;points=[];autosize=1;strokeColor=none;fillColor=none;fontColor=#FFFFFF;" vertex="1" parent="1">
          <mxGeometry x="176.5" y="400" width="90" height="30" as="geometry" />
        </mxCell>
        <mxCell id="nOk6LsAhlCukb59VjgZn-48" value="10.200.32.2" style="text;html=1;align=center;verticalAlign=middle;resizable=0;points=[];autosize=1;strokeColor=none;fillColor=none;fontColor=#FFFFFF;" vertex="1" parent="1">
          <mxGeometry x="331" y="400" width="90" height="30" as="geometry" />
        </mxCell>
        <mxCell id="nOk6LsAhlCukb59VjgZn-36" value="" style="sketch=0;outlineConnect=0;fontColor=#232F3E;gradientColor=none;strokeColor=#FF8000;fillColor=none;dashed=0;verticalLabelPosition=bottom;verticalAlign=top;align=center;html=1;fontSize=12;fontStyle=0;aspect=fixed;shape=mxgraph.aws4.resourceIcon;resIcon=mxgraph.aws4.nat_gateway;strokeWidth=2;" vertex="1" parent="1">
          <mxGeometry x="390" y="262.5" width="25" height="25" as="geometry" />
        </mxCell>
        <mxCell id="nOk6LsAhlCukb59VjgZn-55" value="&lt;font color=&quot;#ffffff&quot;&gt;&lt;span style=&quot;text-wrap: nowrap;&quot;&gt;Node-1&lt;/span&gt;&lt;br style=&quot;forced-color-adjust: none; font-family: Helvetica; font-size: 12px; font-style: normal; font-variant-ligatures: normal; font-variant-caps: normal; letter-spacing: normal; orphans: 2; text-align: left; text-indent: 0px; text-transform: none; widows: 2; word-spacing: 0px; -webkit-text-stroke-width: 0px; white-space: nowrap; text-decoration-thickness: initial; text-decoration-style: initial; text-decoration-color: initial;&quot;&gt;&lt;span style=&quot;font-family: Helvetica; font-size: 12px; font-style: normal; font-variant-ligatures: normal; font-variant-caps: normal; letter-spacing: normal; orphans: 2; text-align: left; text-indent: 0px; text-transform: none; widows: 2; word-spacing: 0px; -webkit-text-stroke-width: 0px; white-space: nowrap; text-decoration-thickness: initial; text-decoration-style: initial; text-decoration-color: initial; float: none; display: inline !important;&quot;&gt;Compute Engine&lt;/span&gt;&lt;/font&gt;" style="text;whiteSpace=wrap;html=1;fontStyle=1" vertex="1" parent="1">
          <mxGeometry x="540" y="510" width="120" height="50" as="geometry" />
        </mxCell>
        <mxCell id="nOk6LsAhlCukb59VjgZn-56" value="" style="sketch=0;points=[[0,0,0],[0.25,0,0],[0.5,0,0],[0.75,0,0],[1,0,0],[0,1,0],[0.25,1,0],[0.5,1,0],[0.75,1,0],[1,1,0],[0,0.25,0],[0,0.5,0],[0,0.75,0],[1,0.25,0],[1,0.5,0],[1,0.75,0]];outlineConnect=0;fontColor=#232F3E;fillColor=#ED7100;strokeColor=none;dashed=0;verticalLabelPosition=bottom;verticalAlign=top;align=center;html=1;fontSize=12;fontStyle=0;aspect=fixed;shape=mxgraph.aws4.resourceIcon;resIcon=mxgraph.aws4.compute;" vertex="1" parent="1">
          <mxGeometry x="490" y="516" width="38" height="38" as="geometry" />
        </mxCell>
        <mxCell id="nOk6LsAhlCukb59VjgZn-57" style="edgeStyle=orthogonalEdgeStyle;rounded=0;orthogonalLoop=1;jettySize=auto;html=1;exitX=0.5;exitY=0;exitDx=0;exitDy=0;endArrow=none;endFill=0;strokeColor=#FF8000;" edge="1" parent="1" source="nOk6LsAhlCukb59VjgZn-58" target="nOk6LsAhlCukb59VjgZn-59">
          <mxGeometry relative="1" as="geometry" />
        </mxCell>
        <mxCell id="nOk6LsAhlCukb59VjgZn-58" value="&lt;font color=&quot;#ffffff&quot;&gt;Linux Bridge&lt;/font&gt;" style="outlineConnect=0;gradientColor=none;html=1;whiteSpace=wrap;fontSize=12;fontStyle=0;strokeColor=#FF8000;fillColor=none;verticalAlign=bottom;align=center;fontColor=#879196;spacingTop=3;" vertex="1" parent="1">
          <mxGeometry x="492" y="315" width="253" height="45" as="geometry" />
        </mxCell>
        <mxCell id="nOk6LsAhlCukb59VjgZn-77" style="edgeStyle=orthogonalEdgeStyle;rounded=0;orthogonalLoop=1;jettySize=auto;html=1;exitX=0.5;exitY=1;exitDx=0;exitDy=0;shape=flexArrow;strokeWidth=1;fillColor=#ffcd28;strokeColor=#FFFFFF;gradientColor=#ffa500;dashed=1;" edge="1" parent="1" source="nOk6LsAhlCukb59VjgZn-59" target="nOk6LsAhlCukb59VjgZn-69">
          <mxGeometry relative="1" as="geometry">
            <Array as="points">
              <mxPoint x="619" y="330" />
              <mxPoint x="694" y="330" />
            </Array>
          </mxGeometry>
        </mxCell>
        <mxCell id="nOk6LsAhlCukb59VjgZn-59" value="&lt;font color=&quot;#ffffff&quot;&gt;eth: 192.168.20.5&lt;/font&gt;" style="outlineConnect=0;gradientColor=none;html=1;whiteSpace=wrap;fontSize=12;fontStyle=0;strokeColor=#FF8000;fillColor=none;verticalAlign=middle;align=center;fontColor=#879196;spacingTop=3;" vertex="1" parent="1">
          <mxGeometry x="492" y="260" width="253" height="30" as="geometry" />
        </mxCell>
        <mxCell id="nOk6LsAhlCukb59VjgZn-60" value="&lt;font color=&quot;#ffffff&quot;&gt;veth&lt;/font&gt;" style="outlineConnect=0;html=1;whiteSpace=wrap;fontSize=12;fontStyle=0;strokeColor=#3A5431;fillColor=#6d8764;verticalAlign=middle;align=center;fontColor=#ffffff;spacingTop=3;" vertex="1" parent="1">
          <mxGeometry x="518" y="340" width="47" height="20" as="geometry" />
        </mxCell>
        <mxCell id="nOk6LsAhlCukb59VjgZn-61" value="&lt;font color=&quot;#ffffff&quot;&gt;veth&lt;/font&gt;" style="outlineConnect=0;html=1;whiteSpace=wrap;fontSize=12;fontStyle=0;strokeColor=#3A5431;fillColor=#6d8764;verticalAlign=middle;align=center;fontColor=#ffffff;spacingTop=3;" vertex="1" parent="1">
          <mxGeometry x="670" y="340" width="47" height="20" as="geometry" />
        </mxCell>
        <mxCell id="nOk6LsAhlCukb59VjgZn-62" value="" style="outlineConnect=0;gradientColor=none;html=1;whiteSpace=wrap;fontSize=12;fontStyle=0;strokeColor=#FF8000;fillColor=none;verticalAlign=bottom;align=center;fontColor=#879196;spacingTop=3;" vertex="1" parent="1">
          <mxGeometry x="492.5" y="380" width="98" height="100" as="geometry" />
        </mxCell>
        <mxCell id="nOk6LsAhlCukb59VjgZn-63" value="" style="aspect=fixed;sketch=0;html=1;dashed=0;whitespace=wrap;verticalLabelPosition=bottom;verticalAlign=top;fillColor=#2875E2;strokeColor=#ffffff;points=[[0.005,0.63,0],[0.1,0.2,0],[0.9,0.2,0],[0.5,0,0],[0.995,0.63,0],[0.72,0.99,0],[0.5,1,0],[0.28,0.99,0]];shape=mxgraph.kubernetes.icon2;kubernetesLabel=1;prIcon=pod" vertex="1" parent="1">
          <mxGeometry x="515" y="422" width="50" height="48" as="geometry" />
        </mxCell>
        <mxCell id="nOk6LsAhlCukb59VjgZn-64" style="edgeStyle=orthogonalEdgeStyle;rounded=0;orthogonalLoop=1;jettySize=auto;html=1;exitX=0.5;exitY=0;exitDx=0;exitDy=0;entryX=0.5;entryY=1;entryDx=0;entryDy=0;strokeColor=#FF8000;endArrow=none;endFill=0;strokeWidth=3;" edge="1" parent="1" source="nOk6LsAhlCukb59VjgZn-65" target="nOk6LsAhlCukb59VjgZn-60">
          <mxGeometry relative="1" as="geometry" />
        </mxCell>
        <mxCell id="nOk6LsAhlCukb59VjgZn-65" value="&lt;font color=&quot;#ffffff&quot;&gt;veth&lt;/font&gt;" style="outlineConnect=0;html=1;whiteSpace=wrap;fontSize=12;fontStyle=0;strokeColor=#3A5431;fillColor=#6d8764;verticalAlign=middle;align=center;fontColor=#ffffff;spacingTop=3;" vertex="1" parent="1">
          <mxGeometry x="518" y="380" width="47" height="20" as="geometry" />
        </mxCell>
        <mxCell id="nOk6LsAhlCukb59VjgZn-66" value="" style="outlineConnect=0;gradientColor=none;html=1;whiteSpace=wrap;fontSize=12;fontStyle=0;strokeColor=#FF8000;fillColor=none;verticalAlign=bottom;align=center;fontColor=#879196;spacingTop=3;" vertex="1" parent="1">
          <mxGeometry x="647" y="385" width="98" height="100" as="geometry" />
        </mxCell>
        <mxCell id="nOk6LsAhlCukb59VjgZn-67" value="" style="aspect=fixed;sketch=0;html=1;dashed=0;whitespace=wrap;verticalLabelPosition=bottom;verticalAlign=top;fillColor=#2875E2;strokeColor=#ffffff;points=[[0.005,0.63,0],[0.1,0.2,0],[0.9,0.2,0],[0.5,0,0],[0.995,0.63,0],[0.72,0.99,0],[0.5,1,0],[0.28,0.99,0]];shape=mxgraph.kubernetes.icon2;kubernetesLabel=1;prIcon=pod" vertex="1" parent="1">
          <mxGeometry x="671" y="427" width="50" height="48" as="geometry" />
        </mxCell>
        <mxCell id="nOk6LsAhlCukb59VjgZn-69" value="&lt;font color=&quot;#ffffff&quot;&gt;veth&lt;/font&gt;" style="outlineConnect=0;html=1;whiteSpace=wrap;fontSize=12;fontStyle=0;strokeColor=#3A5431;fillColor=#6d8764;verticalAlign=middle;align=center;fontColor=#ffffff;spacingTop=3;" vertex="1" parent="1">
          <mxGeometry x="670" y="385" width="47" height="20" as="geometry" />
        </mxCell>
        <mxCell id="nOk6LsAhlCukb59VjgZn-70" value="10.200.33.5" style="text;html=1;align=center;verticalAlign=middle;resizable=0;points=[];autosize=1;strokeColor=none;fillColor=none;fontColor=#FFFFFF;" vertex="1" parent="1">
          <mxGeometry x="496.5" y="400" width="90" height="30" as="geometry" />
        </mxCell>
        <mxCell id="nOk6LsAhlCukb59VjgZn-71" value="10.200.33.2" style="text;html=1;align=center;verticalAlign=middle;resizable=0;points=[];autosize=1;strokeColor=none;fillColor=none;fontColor=#FFFFFF;" vertex="1" parent="1">
          <mxGeometry x="651" y="405" width="90" height="30" as="geometry" />
        </mxCell>
        <mxCell id="nOk6LsAhlCukb59VjgZn-72" value="" style="sketch=0;outlineConnect=0;fontColor=#232F3E;gradientColor=none;strokeColor=#FF8000;fillColor=none;dashed=0;verticalLabelPosition=bottom;verticalAlign=top;align=center;html=1;fontSize=12;fontStyle=0;aspect=fixed;shape=mxgraph.aws4.resourceIcon;resIcon=mxgraph.aws4.nat_gateway;strokeWidth=2;" vertex="1" parent="1">
          <mxGeometry x="503" y="262.5" width="25" height="25" as="geometry" />
        </mxCell>
        <mxCell id="nOk6LsAhlCukb59VjgZn-83" style="edgeStyle=orthogonalEdgeStyle;rounded=0;orthogonalLoop=1;jettySize=auto;html=1;exitX=0.5;exitY=0;exitDx=0;exitDy=0;strokeWidth=2;endArrow=none;endFill=0;strokeColor=#000000;" edge="1" parent="1" source="nOk6LsAhlCukb59VjgZn-59" target="nOk6LsAhlCukb59VjgZn-90">
          <mxGeometry relative="1" as="geometry">
            <mxPoint x="681" y="157" as="targetPoint" />
          </mxGeometry>
        </mxCell>
        <mxCell id="nOk6LsAhlCukb59VjgZn-88" value="" style="verticalLabelPosition=bottom;sketch=0;html=1;fillColor=#6ABD46;strokeColor=#ffffff;verticalAlign=top;align=center;points=[[0.085,0.085,0],[0.915,0.085,0],[0.915,0.915,0],[0.085,0.915,0],[0.25,0,0],[0.5,0,0],[0.75,0,0],[1,0.25,0],[1,0.5,0],[1,0.75,0],[0.75,1,0],[0.5,1,0],[0.25,1,0],[0,0.75,0],[0,0.5,0],[0,0.25,0]];pointerEvents=1;shape=mxgraph.cisco_safe.compositeIcon;bgIcon=mxgraph.cisco_safe.architecture.generic_appliance;resIcon=mxgraph.cisco_safe.architecture.aci_leaf_switch;" vertex="1" parent="1">
          <mxGeometry x="273" y="90" width="50" height="50" as="geometry" />
        </mxCell>
        <mxCell id="nOk6LsAhlCukb59VjgZn-93" style="rounded=0;orthogonalLoop=1;jettySize=auto;html=1;exitX=0.5;exitY=1;exitDx=0;exitDy=0;exitPerimeter=0;endArrow=none;endFill=0;entryX=0.5;entryY=0;entryDx=0;entryDy=0;entryPerimeter=0;" edge="1" parent="1" source="nOk6LsAhlCukb59VjgZn-89" target="nOk6LsAhlCukb59VjgZn-90">
          <mxGeometry relative="1" as="geometry" />
        </mxCell>
        <mxCell id="nOk6LsAhlCukb59VjgZn-89" value="" style="verticalLabelPosition=bottom;sketch=0;html=1;fillColor=#6ABD46;strokeColor=#ffffff;verticalAlign=top;align=center;points=[[0.085,0.085,0],[0.915,0.085,0],[0.915,0.915,0],[0.085,0.915,0],[0.25,0,0],[0.5,0,0],[0.75,0,0],[1,0.25,0],[1,0.5,0],[1,0.75,0],[0.75,1,0],[0.5,1,0],[0.25,1,0],[0,0.75,0],[0,0.5,0],[0,0.25,0]];pointerEvents=1;shape=mxgraph.cisco_safe.compositeIcon;bgIcon=mxgraph.cisco_safe.architecture.generic_appliance;resIcon=mxgraph.cisco_safe.architecture.aci_spine_switch;" vertex="1" parent="1">
          <mxGeometry x="347" y="-40" width="50" height="50" as="geometry" />
        </mxCell>
        <mxCell id="nOk6LsAhlCukb59VjgZn-90" value="" style="verticalLabelPosition=bottom;sketch=0;html=1;fillColor=#6ABD46;strokeColor=#ffffff;verticalAlign=top;align=center;points=[[0.085,0.085,0],[0.915,0.085,0],[0.915,0.915,0],[0.085,0.915,0],[0.25,0,0],[0.5,0,0],[0.75,0,0],[1,0.25,0],[1,0.5,0],[1,0.75,0],[0.75,1,0],[0.5,1,0],[0.25,1,0],[0,0.75,0],[0,0.5,0],[0,0.25,0]];pointerEvents=1;shape=mxgraph.cisco_safe.compositeIcon;bgIcon=mxgraph.cisco_safe.architecture.generic_appliance;resIcon=mxgraph.cisco_safe.architecture.aci_leaf_switch;" vertex="1" parent="1">
          <mxGeometry x="593.5" y="90" width="50" height="50" as="geometry" />
        </mxCell>
        <mxCell id="nOk6LsAhlCukb59VjgZn-91" value="" style="verticalLabelPosition=bottom;sketch=0;html=1;fillColor=#6ABD46;strokeColor=#ffffff;verticalAlign=top;align=center;points=[[0.085,0.085,0],[0.915,0.085,0],[0.915,0.915,0],[0.085,0.915,0],[0.25,0,0],[0.5,0,0],[0.75,0,0],[1,0.25,0],[1,0.5,0],[1,0.75,0],[0.75,1,0],[0.5,1,0],[0.25,1,0],[0,0.75,0],[0,0.5,0],[0,0.25,0]];pointerEvents=1;shape=mxgraph.cisco_safe.compositeIcon;bgIcon=mxgraph.cisco_safe.architecture.generic_appliance;resIcon=mxgraph.cisco_safe.architecture.aci_spine_switch;" vertex="1" parent="1">
          <mxGeometry x="515" y="-40" width="50" height="50" as="geometry" />
        </mxCell>
        <mxCell id="nOk6LsAhlCukb59VjgZn-92" style="rounded=0;orthogonalLoop=1;jettySize=auto;html=1;exitX=0.5;exitY=1;exitDx=0;exitDy=0;exitPerimeter=0;entryX=0.5;entryY=0;entryDx=0;entryDy=0;entryPerimeter=0;endArrow=none;endFill=0;" edge="1" parent="1" source="nOk6LsAhlCukb59VjgZn-89" target="nOk6LsAhlCukb59VjgZn-88">
          <mxGeometry relative="1" as="geometry" />
        </mxCell>
        <mxCell id="nOk6LsAhlCukb59VjgZn-94" style="rounded=0;orthogonalLoop=1;jettySize=auto;html=1;exitX=0.5;exitY=1;exitDx=0;exitDy=0;exitPerimeter=0;entryX=0.5;entryY=0;entryDx=0;entryDy=0;entryPerimeter=0;endArrow=none;endFill=0;" edge="1" parent="1" source="nOk6LsAhlCukb59VjgZn-91" target="nOk6LsAhlCukb59VjgZn-88">
          <mxGeometry relative="1" as="geometry" />
        </mxCell>
        <mxCell id="nOk6LsAhlCukb59VjgZn-96" style="rounded=0;orthogonalLoop=1;jettySize=auto;html=1;exitX=0.5;exitY=1;exitDx=0;exitDy=0;exitPerimeter=0;entryX=0.5;entryY=0;entryDx=0;entryDy=0;entryPerimeter=0;endArrow=none;endFill=0;" edge="1" parent="1" source="nOk6LsAhlCukb59VjgZn-91" target="nOk6LsAhlCukb59VjgZn-90">
          <mxGeometry relative="1" as="geometry" />
        </mxCell>
        <mxCell id="nOk6LsAhlCukb59VjgZn-97" value="Spine" style="text;html=1;align=center;verticalAlign=middle;resizable=0;points=[];autosize=1;strokeColor=none;fillColor=none;" vertex="1" parent="1">
          <mxGeometry x="575" y="-30" width="50" height="30" as="geometry" />
        </mxCell>
        <mxCell id="nOk6LsAhlCukb59VjgZn-98" value="Spine" style="text;html=1;align=center;verticalAlign=middle;resizable=0;points=[];autosize=1;strokeColor=none;fillColor=none;" vertex="1" parent="1">
          <mxGeometry x="290" y="-30" width="50" height="30" as="geometry" />
        </mxCell>
        <mxCell id="nOk6LsAhlCukb59VjgZn-99" value="Leaf" style="text;html=1;align=center;verticalAlign=middle;resizable=0;points=[];autosize=1;strokeColor=none;fillColor=none;" vertex="1" parent="1">
          <mxGeometry x="323" y="100" width="50" height="30" as="geometry" />
        </mxCell>
        <mxCell id="nOk6LsAhlCukb59VjgZn-100" value="Leaf" style="text;html=1;align=center;verticalAlign=middle;resizable=0;points=[];autosize=1;strokeColor=none;fillColor=none;" vertex="1" parent="1">
          <mxGeometry x="543.5" y="101" width="50" height="30" as="geometry" />
        </mxCell>
        <mxCell id="nOk6LsAhlCukb59VjgZn-101" style="edgeStyle=orthogonalEdgeStyle;rounded=0;orthogonalLoop=1;jettySize=auto;html=1;exitX=1;exitY=0.5;exitDx=0;exitDy=0;exitPerimeter=0;entryX=0;entryY=0.5;entryDx=0;entryDy=0;entryPerimeter=0;endArrow=none;endFill=0;" edge="1" parent="1" source="nOk6LsAhlCukb59VjgZn-89" target="nOk6LsAhlCukb59VjgZn-91">
          <mxGeometry relative="1" as="geometry" />
        </mxCell>
        <mxCell id="nOk6LsAhlCukb59VjgZn-73" value="&lt;font color=&quot;#ffffff&quot;&gt;vxlan-tunnel&lt;/font&gt;" style="outlineConnect=0;html=1;whiteSpace=wrap;fontSize=12;fontStyle=1;strokeColor=#432D57;fillColor=#76608a;verticalAlign=middle;align=center;spacingTop=3;fontColor=#ffffff;" vertex="1" parent="1">
          <mxGeometry x="157" y="210" width="603" height="20" as="geometry" />
        </mxCell>
        <mxCell id="nOk6LsAhlCukb59VjgZn-38" value="&lt;font color=&quot;#ffffff&quot;&gt;veth&lt;/font&gt;" style="outlineConnect=0;html=1;whiteSpace=wrap;fontSize=12;fontStyle=0;strokeColor=#3A5431;fillColor=#6d8764;verticalAlign=middle;align=center;fontColor=#ffffff;spacingTop=3;" vertex="1" parent="1">
          <mxGeometry x="196.5" y="340" width="47" height="20" as="geometry" />
        </mxCell>
        <mxCell id="nOk6LsAhlCukb59VjgZn-103" value="" style="shape=callout;whiteSpace=wrap;html=1;perimeter=calloutPerimeter;fillColor=#6d8764;shadow=0;position2=1;fontColor=#ffffff;strokeColor=#3A5431;" vertex="1" parent="1">
          <mxGeometry x="51.5" y="255" width="145" height="90" as="geometry" />
        </mxCell>
        <mxCell id="nOk6LsAhlCukb59VjgZn-104" value="" style="shape=callout;whiteSpace=wrap;html=1;perimeter=calloutPerimeter;fillColor=#6d8764;shadow=0;position2=0;fontColor=#ffffff;strokeColor=#3A5431;" vertex="1" parent="1">
          <mxGeometry x="710" y="253" width="150" height="90" as="geometry" />
        </mxCell>
        <mxCell id="nOk6LsAhlCukb59VjgZn-105" value="SRC" style="rounded=0;whiteSpace=wrap;html=1;fillColor=none;" vertex="1" parent="1">
          <mxGeometry x="60" y="263.5" width="40" height="17.5" as="geometry" />
        </mxCell>
        <mxCell id="nOk6LsAhlCukb59VjgZn-107" value="10.200.32.5" style="rounded=0;whiteSpace=wrap;html=1;" vertex="1" parent="1">
          <mxGeometry x="100" y="263.5" width="90" height="17.5" as="geometry" />
        </mxCell>
        <mxCell id="nOk6LsAhlCukb59VjgZn-109" value="DST" style="rounded=0;whiteSpace=wrap;html=1;fillColor=none;" vertex="1" parent="1">
          <mxGeometry x="60" y="288.5" width="40" height="17.5" as="geometry" />
        </mxCell>
        <mxCell id="nOk6LsAhlCukb59VjgZn-110" value="10.200.33.2" style="rounded=0;whiteSpace=wrap;html=1;" vertex="1" parent="1">
          <mxGeometry x="100" y="288.5" width="90" height="17.5" as="geometry" />
        </mxCell>
        <mxCell id="nOk6LsAhlCukb59VjgZn-111" value="SRC" style="rounded=0;whiteSpace=wrap;html=1;fillColor=none;" vertex="1" parent="1">
          <mxGeometry x="721" y="262.5" width="40" height="17.5" as="geometry" />
        </mxCell>
        <mxCell id="nOk6LsAhlCukb59VjgZn-112" value="10.200.32.5" style="rounded=0;whiteSpace=wrap;html=1;" vertex="1" parent="1">
          <mxGeometry x="761" y="262.5" width="90" height="17.5" as="geometry" />
        </mxCell>
        <mxCell id="nOk6LsAhlCukb59VjgZn-113" value="DST" style="rounded=0;whiteSpace=wrap;html=1;fillColor=none;" vertex="1" parent="1">
          <mxGeometry x="721" y="287.5" width="40" height="17.5" as="geometry" />
        </mxCell>
        <mxCell id="nOk6LsAhlCukb59VjgZn-114" value="10.200.33.2" style="rounded=0;whiteSpace=wrap;html=1;" vertex="1" parent="1">
          <mxGeometry x="761" y="287.5" width="90" height="17.5" as="geometry" />
        </mxCell>
        <mxCell id="nOk6LsAhlCukb59VjgZn-115" value="" style="shape=callout;whiteSpace=wrap;html=1;perimeter=calloutPerimeter;fillColor=#6d8764;shadow=0;position2=1;fontColor=#ffffff;strokeColor=#3A5431;" vertex="1" parent="1">
          <mxGeometry x="145" y="50" width="145" height="90" as="geometry" />
        </mxCell>
        <mxCell id="nOk6LsAhlCukb59VjgZn-116" value="SRC" style="rounded=0;whiteSpace=wrap;html=1;fillColor=none;" vertex="1" parent="1">
          <mxGeometry x="153.5" y="58.5" width="40" height="17.5" as="geometry" />
        </mxCell>
        <mxCell id="nOk6LsAhlCukb59VjgZn-117" value="192.168.10.5" style="rounded=0;whiteSpace=wrap;html=1;" vertex="1" parent="1">
          <mxGeometry x="193.5" y="58.5" width="90" height="17.5" as="geometry" />
        </mxCell>
        <mxCell id="nOk6LsAhlCukb59VjgZn-118" value="DST" style="rounded=0;whiteSpace=wrap;html=1;fillColor=none;" vertex="1" parent="1">
          <mxGeometry x="153.5" y="83.5" width="40" height="17.5" as="geometry" />
        </mxCell>
        <mxCell id="nOk6LsAhlCukb59VjgZn-119" value="192.168.20.5" style="rounded=0;whiteSpace=wrap;html=1;" vertex="1" parent="1">
          <mxGeometry x="193.5" y="83.5" width="90" height="17.5" as="geometry" />
        </mxCell>
        <mxCell id="nOk6LsAhlCukb59VjgZn-125" value="" style="shape=callout;whiteSpace=wrap;html=1;perimeter=calloutPerimeter;fillColor=#6d8764;shadow=0;position2=0;fontColor=#ffffff;strokeColor=#3A5431;" vertex="1" parent="1">
          <mxGeometry x="625" y="50" width="145" height="90" as="geometry" />
        </mxCell>
        <mxCell id="nOk6LsAhlCukb59VjgZn-126" value="SRC" style="rounded=0;whiteSpace=wrap;html=1;fillColor=none;" vertex="1" parent="1">
          <mxGeometry x="633.5" y="58.5" width="40" height="17.5" as="geometry" />
        </mxCell>
        <mxCell id="nOk6LsAhlCukb59VjgZn-127" value="192.168.10.5" style="rounded=0;whiteSpace=wrap;html=1;" vertex="1" parent="1">
          <mxGeometry x="673.5" y="58.5" width="90" height="17.5" as="geometry" />
        </mxCell>
        <mxCell id="nOk6LsAhlCukb59VjgZn-128" value="DST" style="rounded=0;whiteSpace=wrap;html=1;fillColor=none;" vertex="1" parent="1">
          <mxGeometry x="633.5" y="83.5" width="40" height="17.5" as="geometry" />
        </mxCell>
        <mxCell id="nOk6LsAhlCukb59VjgZn-129" value="192.168.20.5" style="rounded=0;whiteSpace=wrap;html=1;" vertex="1" parent="1">
          <mxGeometry x="673.5" y="83.5" width="90" height="17.5" as="geometry" />
        </mxCell>
        <mxCell id="nOk6LsAhlCukb59VjgZn-132" value="" style="ellipse;whiteSpace=wrap;html=1;aspect=fixed;rotation=-30;fillColor=#d80073;fontColor=#ffffff;strokeColor=#A50040;" vertex="1" parent="1">
          <mxGeometry x="605.25" y="203.5" width="26.5" height="26.5" as="geometry" />
        </mxCell>
        <mxCell id="nOk6LsAhlCukb59VjgZn-133" value="" style="ellipse;whiteSpace=wrap;html=1;aspect=fixed;rotation=-30;fillColor=#d80073;fontColor=#ffffff;strokeColor=#A50040;" vertex="1" parent="1">
          <mxGeometry x="285.25" y="203.5" width="26.5" height="26.5" as="geometry" />
        </mxCell>
        <mxCell id="nOk6LsAhlCukb59VjgZn-134" value="Инкапсуляция" style="shape=callout;whiteSpace=wrap;html=1;perimeter=calloutPerimeter;fillColor=#6d8764;shadow=0;position2=0;fontColor=#ffffff;strokeColor=#3A5431;" vertex="1" parent="1">
          <mxGeometry x="625" y="170" width="109" height="50" as="geometry" />
        </mxCell>
        <mxCell id="nOk6LsAhlCukb59VjgZn-135" value="Инкапсуляция" style="shape=callout;whiteSpace=wrap;html=1;perimeter=calloutPerimeter;fillColor=#6d8764;shadow=0;position2=1;fontColor=#ffffff;strokeColor=#3A5431;" vertex="1" parent="1">
          <mxGeometry x="181" y="170" width="109" height="50" as="geometry" />
        </mxCell>
      </root>
    </mxGraphModel>
  </diagram>
</mxfile>
